<svg width="398" height="69" viewBox="0 0 398 69" fill="none" xmlns="http://www.w3.org/2000/svg">
<path d="M72 64.872V69H0V64.872H20.832C15.712 61.864 11.68 57.8 8.736 52.68C5.856 47.496 4.416 41.64 4.416 35.112C4.416 25.256 7.808 17 14.592 10.344C21.44 3.688 29.664 0.359997 39.264 0.359997C48.928 0.359997 57.312 3.528 64.416 9.86399L56.64 21.096C53.632 18.472 50.848 16.68 48.288 15.72C45.792 14.696 43.072 14.184 40.128 14.184C34.432 14.184 29.632 16.136 25.728 20.04C21.824 23.88 19.872 28.968 19.872 35.304C19.872 41.64 21.728 46.728 25.44 50.568C29.216 54.344 33.696 56.232 38.88 56.232C44.064 56.232 48.384 55.24 51.84 53.256V34.824H66.912V58.632C64.736 61.064 62.144 63.144 59.136 64.872H72ZM144 64.872V69H72V64.872H92.832C87.712 61.864 83.68 57.8 80.736 52.68C77.856 47.496 76.416 41.64 76.416 35.112C76.416 25.256 79.808 17 86.592 10.344C93.44 3.688 101.664 0.359997 111.264 0.359997C120.928 0.359997 129.312 3.528 136.416 9.86399L128.64 21.096C125.632 18.472 122.848 16.68 120.288 15.72C117.792 14.696 115.072 14.184 112.128 14.184C106.432 14.184 101.632 16.136 97.728 20.04C93.824 23.88 91.872 28.968 91.872 35.304C91.872 41.64 93.728 46.728 97.44 50.568C101.216 54.344 105.696 56.232 110.88 56.232C116.064 56.232 120.384 55.24 123.84 53.256V34.824H138.912V58.632C136.736 61.064 134.144 63.144 131.136 64.872H144ZM169.344 64.872V69H144V64.872H169.344ZM267.137 64.872V69H232.865L218.177 22.344L203.585 69H169.312V64.872H191.009L169.024 1.89599H185.249L198.497 40.488L210.401 1.89599H226.049L237.857 40.488L251.201 1.89599H267.425L245.441 64.872H267.137ZM275.35 64.872V1.89599H323.734V15.24H290.326V29.064H320.374V41.832H290.326V55.752H324.79V64.872H334.102V69H266.038V64.872H275.35ZM397.682 64.872V69H328.85V64.872H338.162V1.89599H364.274C368.818 1.89599 372.722 2.43999 375.986 3.528C379.314 4.616 381.81 6.088 383.474 7.944C386.482 11.4 387.986 15.304 387.986 19.656C387.986 24.904 386.29 28.808 382.898 31.368C381.746 32.264 380.946 32.84 380.498 33.096C380.05 33.288 379.25 33.64 378.098 34.152C382.258 35.048 385.554 36.936 387.986 39.816C390.482 42.632 391.73 46.152 391.73 50.376C391.73 56.712 389.234 61.544 384.242 64.872H397.682ZM353.138 56.328H363.41C367.698 56.328 370.898 55.816 373.01 54.792C375.186 53.704 376.274 51.624 376.274 48.552C376.274 45.416 375.122 43.368 372.818 42.408C370.578 41.384 366.962 40.872 361.97 40.872H353.138V56.328ZM353.138 29.064H360.242C364.402 29.064 367.474 28.616 369.458 27.72C371.506 26.824 372.53 24.904 372.53 21.96C372.53 18.952 371.602 16.968 369.746 16.008C367.89 15.048 364.754 14.568 360.338 14.568H353.138V29.064Z" fill="white"/>
</svg>
