<svg xmlns="http://www.w3.org/2000/svg"><symbol id="icon-logo_GGweb" viewBox="0 0 398 69"><path d="M72 64.872V69H0v-4.128h20.832C15.712 61.864 11.68 57.8 8.736 52.68c-2.88-5.184-4.32-11.04-4.32-17.568 0-9.856 3.392-18.112 10.176-24.768C21.44 3.688 29.664.36 39.264.36c9.664 0 18.048 3.168 25.152 9.504L56.64 21.096c-3.008-2.624-5.792-4.416-8.352-5.376-2.496-1.024-5.216-1.536-8.16-1.536-5.696 0-10.496 1.952-14.4 5.856-3.904 3.84-5.856 8.928-5.856 15.264 0 6.336 1.856 11.424 5.568 15.264 3.776 3.776 8.256 5.664 13.44 5.664 5.184 0 9.504-.992 12.96-2.976V34.824h15.072v23.808c-2.176 2.432-4.768 4.512-7.776 6.24H72Zm72 0V69H72v-4.128h20.832c-5.12-3.008-9.152-7.072-12.096-12.192-2.88-5.184-4.32-11.04-4.32-17.568 0-9.856 3.392-18.112 10.176-24.768C93.44 3.688 101.664.36 111.264.36c9.664 0 18.048 3.168 25.152 9.504l-7.776 11.232c-3.008-2.624-5.792-4.416-8.352-5.376-2.496-1.024-5.216-1.536-8.16-1.536-5.696 0-10.496 1.952-14.4 5.856-3.904 3.84-5.856 8.928-5.856 15.264 0 6.336 1.856 11.424 5.568 15.264 3.776 3.776 8.256 5.664 13.44 5.664 5.184 0 9.504-.992 12.96-2.976V34.824h15.072v23.808c-2.176 2.432-4.768 4.512-7.776 6.24H144Zm25.344 0V69H144v-4.128h25.344Zm97.793 0V69h-34.272l-14.688-46.656L203.585 69h-34.273v-4.128h21.697L169.024 1.896h16.225l13.248 38.592 11.904-38.592h15.648l11.808 38.592 13.344-38.592h16.224l-21.984 62.976h21.696Zm8.213 0V1.896h48.384V15.24h-33.408v13.824h30.048v12.768h-30.048v13.92h34.464v9.12h9.312V69h-68.064v-4.128h9.312Zm122.332 0V69H328.85v-4.128h9.312V1.896h26.112c4.544 0 8.448.544 11.712 1.632 3.328 1.088 5.824 2.56 7.488 4.416 3.008 3.456 4.512 7.36 4.512 11.712 0 5.248-1.696 9.152-5.088 11.712-1.152.896-1.952 1.472-2.4 1.728-.448.192-1.248.544-2.4 1.056 4.16.896 7.456 2.784 9.888 5.664 2.496 2.816 3.744 6.336 3.744 10.56 0 6.336-2.496 11.168-7.488 14.496h13.44Zm-44.544-8.544h10.272c4.288 0 7.488-.512 9.6-1.536 2.176-1.088 3.264-3.168 3.264-6.24 0-3.136-1.152-5.184-3.456-6.144-2.24-1.024-5.856-1.536-10.848-1.536h-8.832v15.456Zm0-27.264h7.104c4.16 0 7.232-.448 9.216-1.344 2.048-.896 3.072-2.816 3.072-5.76 0-3.008-.928-4.992-2.784-5.952-1.856-.96-4.992-1.44-9.408-1.44h-7.2v14.496Z"/></symbol></svg>